<?xml version="1.0" standalone="no"?>
<!DOCTYPE svg PUBLIC "-//W3C//DTD SVG 20010904//EN"
 "http://www.w3.org/TR/2001/REC-SVG-20010904/DTD/svg10.dtd">
<svg version="1.0" xmlns="http://www.w3.org/2000/svg"
 width="2133.000000pt" height="2133.000000pt" viewBox="0 0 2133.000000 2133.000000"
 preserveAspectRatio="xMidYMid meet">

<g transform="translate(0.000000,2133.000000) scale(0.100000,-0.100000)"
fill="#000000" stroke="none">
<path d="M15610 18055 c-140 -15 -299 -41 -455 -76 -166 -37 -392 -105 -580
-174 -38 -14 -81 -30 -95 -34 -14 -5 -59 -23 -100 -41 -41 -17 -86 -35 -100
-39 -14 -5 -61 -25 -105 -46 -44 -20 -114 -53 -155 -72 -145 -68 -403 -199
-495 -253 -16 -9 -55 -31 -85 -47 -86 -47 -122 -68 -210 -122 -45 -28 -83 -51
-85 -51 -18 0 -545 -353 -741 -496 -177 -129 -460 -344 -563 -428 -417 -342
-737 -631 -1134 -1025 l-327 -325 -68 16 c-37 10 -116 29 -177 43 -60 14 -135
32 -165 39 -30 8 -93 24 -140 35 -47 11 -142 34 -212 50 -71 17 -183 44 -250
60 -279 67 -382 92 -563 136 -104 25 -226 55 -270 65 -44 11 -165 40 -270 65
-104 25 -228 55 -275 66 -47 11 -110 26 -140 34 -30 7 -93 23 -140 34 -47 10
-116 27 -154 36 -63 15 -73 15 -125 -1 -49 -14 -67 -28 -151 -113 -162 -164
-1061 -1081 -1347 -1373 -282 -288 -293 -302 -293 -383 0 -79 28 -121 142
-217 40 -33 94 -78 120 -100 26 -21 98 -81 161 -131 62 -51 154 -126 204 -167
49 -41 131 -109 183 -150 51 -41 126 -103 167 -138 41 -34 107 -88 146 -119
40 -31 108 -87 152 -124 44 -38 156 -130 249 -206 805 -656 887 -724 898 -749
22 -48 -13 -96 -247 -334 -292 -297 -327 -337 -366 -417 -33 -68 -34 -69 -34
-213 0 -118 3 -154 18 -190 28 -69 66 -140 104 -197 38 -55 38 -84 1 -104 -41
-22 -175 -149 -244 -230 -129 -152 -253 -357 -328 -539 -15 -36 -33 -78 -41
-95 -7 -16 -25 -68 -40 -115 -15 -47 -33 -101 -40 -120 -28 -78 -82 -307 -114
-490 -50 -280 -91 -768 -91 -1068 0 -168 10 -207 68 -258 55 -48 104 -56 284
-45 89 6 222 13 293 16 72 4 157 11 190 16 33 4 119 15 190 23 136 16 276 38
360 57 28 6 79 17 115 25 213 43 430 111 635 200 112 48 179 82 278 139 38 22
76 45 86 50 117 67 316 249 424 388 62 79 76 88 97 62 17 -20 126 -86 170
-103 165 -64 333 -66 463 -6 71 32 113 70 387 348 230 234 303 296 345 296 14
0 41 -24 80 -72 33 -40 72 -86 86 -103 49 -55 174 -201 219 -255 25 -30 78
-92 119 -139 41 -47 93 -108 116 -136 24 -27 76 -88 116 -135 41 -47 94 -110
119 -140 25 -29 78 -92 119 -139 41 -47 93 -108 116 -136 24 -27 78 -90 120
-140 105 -122 106 -123 225 -264 58 -68 152 -178 210 -245 58 -67 128 -149
155 -182 28 -32 68 -79 90 -104 23 -25 60 -68 83 -97 57 -70 116 -103 182
-103 96 0 48 -44 831 755 167 171 408 416 535 545 267 270 423 433 456 475 20
26 23 41 23 115 0 48 -6 99 -13 116 -7 17 -19 58 -27 90 -7 33 -19 79 -26 104
-31 117 -48 182 -68 260 -12 47 -31 117 -41 155 -19 69 -37 140 -80 305 -12
47 -31 114 -41 149 -11 35 -19 71 -19 79 0 9 -8 43 -19 76 -19 63 -33 112 -55
206 -8 30 -26 100 -41 155 -15 55 -36 134 -47 175 -11 41 -26 100 -33 130 -12
50 -30 119 -87 330 -11 41 -24 93 -28 115 -5 22 -16 60 -24 84 -9 24 -16 51
-16 60 0 9 -8 45 -19 81 -53 177 -56 190 -40 215 8 13 82 93 165 177 240 244
526 560 806 890 337 398 688 877 1043 1428 219 338 507 876 650 1210 15 36 36
83 45 105 50 110 124 304 168 440 86 260 141 464 168 624 8 46 17 87 19 92 3
4 15 88 27 186 36 309 24 617 -33 833 -25 93 -67 226 -79 248 -4 9 -23 46 -40
82 -90 182 -260 376 -420 482 -186 123 -391 198 -635 234 -147 21 -415 25
-575 9z m-903 -647 c5 -7 20 -47 33 -88 96 -312 278 -652 497 -929 106 -133
334 -359 478 -473 105 -83 292 -212 335 -231 8 -4 29 -15 45 -25 46 -28 144
-78 210 -107 33 -14 67 -30 76 -35 47 -25 220 -85 317 -110 24 -6 52 -20 62
-30 18 -18 18 -22 4 -62 -25 -74 -113 -291 -150 -375 -8 -17 -14 -34 -14 -37
0 -36 -381 -777 -451 -878 -11 -14 -19 -28 -19 -31 0 -2 -25 -44 -55 -93 -30
-49 -58 -96 -62 -104 -8 -17 -161 -253 -256 -395 -648 -969 -1644 -2067 -2603
-2872 -395 -331 -759 -606 -1129 -854 -136 -90 -482 -309 -490 -309 -3 0 -28
-15 -57 -33 -29 -19 -93 -56 -143 -82 -49 -26 -115 -61 -145 -78 -146 -80
-306 -157 -324 -157 -13 0 -77 56 -171 148 -445 436 -711 697 -890 872 -936
912 -1335 1310 -1335 1330 0 51 235 510 434 845 39 66 75 128 81 137 66 113
349 542 448 678 89 124 266 363 311 420 230 291 411 509 580 700 760 859 1660
1669 2501 2252 187 130 483 321 595 386 19 11 87 50 150 87 63 37 160 92 215
122 145 78 606 303 621 303 3 0 24 8 47 19 23 10 76 31 117 47 41 15 84 34 95
41 24 16 30 16 42 1z m-7082 -2343 c17 -4 104 -25 195 -46 91 -22 201 -49 245
-59 149 -35 420 -100 475 -115 54 -13 99 -24 350 -84 128 -31 320 -76 470
-112 47 -11 110 -27 140 -34 54 -14 156 -38 375 -90 134 -32 155 -40 155 -61
0 -9 -33 -53 -73 -98 -258 -286 -643 -776 -907 -1151 -110 -156 -315 -467
-385 -581 -90 -149 -111 -184 -143 -239 -60 -104 -74 -129 -100 -175 -13 -25
-37 -67 -52 -95 -16 -27 -45 -83 -66 -122 -21 -40 -42 -73 -47 -73 -10 0 -97
70 -432 345 -126 104 -313 257 -414 340 -101 82 -252 206 -336 275 -84 69
-235 193 -335 275 -101 83 -270 221 -376 308 -135 110 -194 164 -194 178 0 13
238 263 686 719 378 385 692 701 698 704 6 2 18 3 26 1 8 -2 29 -7 45 -10z
m765 -4228 c183 -180 1062 -1041 1375 -1347 399 -389 735 -725 735 -735 0 -5
-85 -98 -189 -205 l-188 -195 -54 1 c-93 1 -88 -3 -604 504 -137 135 -446 436
-685 670 -837 817 -911 891 -936 945 -14 29 -24 69 -24 94 0 44 1 45 192 237
106 107 196 194 202 194 6 0 85 -73 176 -163z m5573 -227 c5 -19 17 -66 27
-105 10 -38 28 -108 40 -155 12 -47 28 -107 35 -135 18 -62 42 -152 59 -225 8
-30 26 -100 41 -155 15 -55 35 -133 46 -172 10 -40 28 -108 40 -150 12 -43 27
-103 34 -133 15 -60 51 -199 85 -325 12 -44 26 -98 30 -120 5 -22 14 -53 20
-70 6 -16 15 -48 20 -70 4 -22 20 -85 35 -140 15 -55 33 -125 41 -155 22 -89
44 -172 59 -221 28 -88 27 -91 -108 -229 -67 -69 -341 -348 -608 -620 -267
-272 -524 -535 -571 -584 -65 -69 -88 -87 -100 -80 -15 9 -69 71 -593 684
-137 161 -337 394 -444 519 -106 124 -212 249 -236 276 -23 28 -140 164 -259
304 -127 148 -216 260 -214 269 2 9 86 64 190 124 724 417 1443 945 2131 1566
94 85 165 142 175 140 9 -2 20 -19 25 -38z"/>
<path d="M12560 15181 c-187 -20 -390 -93 -555 -200 -176 -113 -373 -360 -440
-551 -74 -212 -96 -390 -77 -617 20 -230 76 -418 193 -648 227 -447 653 -823
1114 -983 209 -72 353 -97 565 -97 172 1 284 18 425 65 201 68 385 190 514
342 147 172 218 320 277 573 26 113 27 391 0 525 -75 387 -253 721 -534 1007
-111 112 -282 251 -380 308 -9 6 -28 17 -42 26 -47 31 -268 139 -284 139 -5 0
-22 6 -39 14 -45 20 -156 51 -268 75 -109 23 -349 34 -469 22z m329 -417 c318
-46 622 -210 868 -468 143 -149 246 -301 316 -466 16 -36 32 -73 37 -82 6 -10
14 -34 19 -55 5 -21 17 -67 27 -103 15 -53 18 -101 18 -265 0 -192 -1 -203
-28 -280 -110 -320 -359 -515 -697 -544 -397 -34 -801 136 -1125 471 -82 85
-135 149 -191 233 -46 69 -122 207 -134 244 -4 14 -20 58 -34 96 -99 261 -97
563 5 780 112 238 302 382 575 435 115 23 210 24 344 4z"/>
<path d="M4300 12301 c-14 -4 -39 -15 -56 -24 -17 -9 -318 -310 -670 -669
-967 -987 -1004 -1024 -1019 -1062 -32 -77 -16 -153 45 -216 53 -54 100 -68
188 -55 46 6 54 13 307 268 143 144 436 442 650 662 215 220 471 482 570 583
99 101 190 200 203 220 33 52 28 161 -8 210 -47 64 -147 103 -210 83z"/>
<path d="M6166 11873 c-35 -9 -90 -49 -127 -90 -77 -86 -72 -215 13 -287 47
-40 85 -50 163 -44 46 4 63 11 102 44 52 44 92 112 100 171 6 54 -39 139 -94
176 -42 28 -116 42 -157 30z"/>
<path d="M5559 11251 c-20 -4 -49 -17 -65 -28 -16 -12 -186 -182 -379 -379
-192 -198 -449 -460 -571 -584 -130 -132 -230 -242 -243 -267 -26 -53 -27
-101 -1 -161 39 -91 132 -136 234 -113 55 12 59 16 278 239 848 861 959 976
978 1012 8 14 14 54 14 90 0 52 -5 74 -23 104 -43 69 -133 104 -222 87z"/>
<path d="M2135 10054 c-5 -1 -27 -5 -48 -9 -46 -7 -142 -85 -184 -149 -39 -59
-48 -116 -28 -181 17 -60 52 -96 119 -126 84 -37 149 -15 246 83 82 82 103
125 98 200 -4 60 -33 109 -89 150 -24 17 -94 37 -114 32z"/>
<path d="M11135 6954 c-42 -21 -111 -91 -130 -130 -39 -83 -6 -193 75 -249 35
-25 52 -29 108 -29 81 -1 124 21 182 95 43 54 57 110 45 177 -8 48 -60 112
-109 136 -43 20 -132 21 -171 0z"/>
<path d="M10525 6331 c-25 -11 -101 -80 -200 -182 -88 -90 -347 -354 -575
-587 -228 -233 -422 -435 -432 -450 -22 -34 -32 -99 -23 -152 8 -50 63 -116
112 -137 42 -17 125 -17 166 1 31 13 280 261 907 904 359 368 375 394 315 513
-50 98 -168 137 -270 90z"/>
<path d="M11605 5091 c-42 -20 -81 -59 -1016 -1011 -572 -582 -655 -669 -683
-711 -26 -42 -25 -147 3 -192 50 -81 131 -116 224 -95 59 13 55 10 632 598
802 817 1062 1085 1089 1123 27 36 31 50 31 108 0 59 -4 72 -31 110 -59 81
-163 110 -249 70z"/>
<path d="M9413 2849 c-49 -14 -178 -146 -192 -195 -32 -115 6 -207 107 -255
102 -50 217 7 324 160 26 37 31 53 31 102 -2 139 -130 228 -270 188z"/>
</g>
</svg>
