<?xml version="1.0" standalone="no"?>
<!DOCTYPE svg PUBLIC "-//W3C//DTD SVG 20010904//EN"
 "http://www.w3.org/TR/2001/REC-SVG-20010904/DTD/svg10.dtd">
<svg version="1.0" xmlns="http://www.w3.org/2000/svg"
 width="64.000000pt" height="64.000000pt" viewBox="0 0 64.000000 64.000000"
 preserveAspectRatio="xMidYMid meet">

<g transform="translate(0.000000,64.000000) scale(0.100000,-0.100000)"
fill="#000000" stroke="none">
<path d="M475 513 c-23 -6 -57 -27 -106 -66 -34 -27 -39 -28 -79 -17 -39 10
-44 9 -66 -11 -32 -30 -30 -39 10 -71 l34 -28 -19 -39 c-24 -51 -25 -91 -1
-91 19 0 80 20 99 33 8 5 24 -5 44 -28 l32 -36 28 28 c27 26 28 31 18 70 -11
40 -9 43 30 100 48 68 61 121 36 146 -17 17 -25 19 -60 10z m40 -114 c-22 -42
-72 -96 -120 -129 l-42 -29 -38 39 -37 38 30 44 c34 49 61 75 114 111 l38 25
35 -35 c34 -34 34 -36 20 -64z m-198 11 c9 0 -1 -19 -21 -44 l-24 -29 -32 23
-31 22 21 23 c18 20 27 22 53 14 18 -5 33 -9 34 -9z m-7 -145 c19 -19 29 -35
23 -35 -15 0 -73 49 -73 61 0 17 16 9 50 -26z m149 -31 c1 -11 -7 -28 -17 -37
-17 -16 -20 -15 -46 11 l-27 29 38 25 c41 27 51 22 52 -28z"/>
<path d="M382 418 c-27 -27 2 -78 44 -78 43 0 56 38 24 70 -23 23 -50 26 -68
8z m49 -8 c25 -14 26 -60 1 -60 -11 0 -27 9 -37 20 -15 16 -15 22 -5 35 15 18
16 18 41 5z"/>
<path d="M124 308 l-29 -33 33 29 c30 28 37 36 29 36 -2 0 -16 -15 -33 -32z"/>
<path d="M174 288 l-19 -23 23 19 c21 18 27 26 19 26 -2 0 -12 -10 -23 -22z"/>
<path d="M324 138 l-19 -23 23 19 c21 18 27 26 19 26 -2 0 -12 -10 -23 -22z"/>
<path d="M349 93 l-24 -28 28 24 c15 14 27 26 27 28 0 8 -8 1 -31 -24z"/>
</g>
</svg>
